HIERARCHY
ROOT hip
{
	OFFSET 0.000000 0.000000 0.000000 
	CHANNELS 6 Xposition Yposition Zposition Xrotation Zrotation Yrotation
	JOINT abdomen
	{
		OFFSET 0.000000 3.402643 0.000000 
		CHANNELS 3 Xrotation Zrotation Yrotation
		JOINT chest
		{
			OFFSET 0.000000 8.438565 -0.680529 
			CHANNELS 3 Xrotation Zrotation Yrotation
			JOINT neck
			{
				OFFSET 0.000000 10.207942 -0.272212 
				CHANNELS 3 Xrotation Zrotation Yrotation
				JOINT head
				{
					OFFSET 0.000000 3.130431 0.000000 
					CHANNELS 3 Xrotation Zrotation Yrotation
					End Site
					{
						OFFSET 0.000000 3.130435 0.000000 
					}
				}
			}
			JOINT lCollar
			{
				OFFSET 3.470700 6.669187 -0.816635 
				CHANNELS 3 Yrotation Zrotation Xrotation
				JOINT lShldr
				{
					OFFSET 3.198488 0.000000 0.000000 
					CHANNELS 3 Zrotation Yrotation Xrotation
					JOINT lForeArm
					{
						OFFSET 10.139888 0.000000 0.000000 
						CHANNELS 3 Yrotation Zrotation Xrotation
						JOINT lHand
						{
							OFFSET 8.370511 0.000000 0.000000 
							CHANNELS 3 Zrotation Yrotation Xrotation
							End Site
							{
								OFFSET 4.083176 0.000000 0.000000 
							}
						}
					}
				}
			}
			JOINT rCollar
			{
				OFFSET -3.470700 6.669187 -0.816635 
				CHANNELS 3 Yrotation Zrotation Xrotation
				JOINT rShldr
				{
					OFFSET -3.198488 0.000000 0.000000 
					CHANNELS 3 Zrotation Yrotation Xrotation
					JOINT rForeArm
					{
						OFFSET -10.139888 0.000000 0.000000 
						CHANNELS 3 Yrotation Zrotation Xrotation
						JOINT rHand
						{
							OFFSET -8.370511 0.000000 0.000000 
							CHANNELS 3 Zrotation Yrotation Xrotation
							End Site
							{
								OFFSET -4.083176 0.000000 0.000000 
							}
						}
					}
				}
			}
		}
	}
	JOINT lThigh
	{
		OFFSET 5.308129 -1.633274 1.361059 
		CHANNELS 3 Xrotation Zrotation Yrotation
		JOINT lShin
		{
			OFFSET -2.041588 -20.007561 0.000000 
			CHANNELS 3 Xrotation Zrotation Yrotation
			JOINT lFoot
			{
				OFFSET 0.000000 -19.190928 -1.224953 
				CHANNELS 3 Xrotation Yrotation Zrotation
				End Site
				{
					OFFSET 0.000000 -2.449906 4.627600 
				}
			}
		}
	}
	JOINT rThigh
	{
		OFFSET -5.308129 -1.633274 1.361059 
		CHANNELS 3 Xrotation Zrotation Yrotation
		JOINT rShin
		{
			OFFSET 2.041588 -20.007561 0.000000 
			CHANNELS 3 Xrotation Zrotation Yrotation
			JOINT rFoot
			{
				OFFSET 0.000000 -19.190928 -1.224953 
				CHANNELS 3 Xrotation Yrotation Zrotation
				End Site
				{
					OFFSET 0.000000 -2.449906 4.627600 
				}
			}
		}
	}
}
MOTION
Frames: 15
Frame Time: 0.016667
-0.599925 44.522144 0.536782 -0.851114 -3.407830 -0.886993 -23.848499 2.302660 -1.134750 13.330800 4.127230 -0.385445 21.003048 -5.135586 -7.653223 15.451100 9.993360 -2.234700 2.000000 -2.000000 0.000000 -48.565701 -12.288700 170.311996 109.794998 -0.165240 0.147630 0.058706 0.065718 -112.741997 -2.000000 2.000000 0.000000 56.196201 20.031601 166.651993 -107.998001 0.175621 0.110983 -0.073417 -0.075778 -108.737999 -6.234575 1.693258 -0.439637 28.669306 3.273546 2.001601 -14.071247 7.140824 1.084832 -6.027583 4.936060 1.001364 26.920670 -2.922338 -2.019906 -14.032691 -2.730560 -1.603038 
-0.566701 44.525356 0.566361 -0.831433 -3.271140 -0.909663 -23.722099 2.340710 -1.145260 13.525900 4.206530 -0.380910 21.060129 -5.393859 -7.634657 15.617800 9.939320 -2.186260 2.000000 -2.000000 0.000000 -48.653400 -12.230800 169.979996 109.863998 -0.165076 0.147571 0.058684 0.065669 -112.762001 -2.000000 2.000000 0.000000 55.755402 19.850800 164.619995 -108.633003 0.174286 0.110541 -0.073573 -0.076067 -108.621002 -6.153539 1.524968 -0.289190 28.561062 3.271271 1.992494 -14.114166 7.091454 1.084297 -6.091062 4.734961 0.973248 27.094717 -2.941322 -2.002435 -14.176687 -2.609108 -1.576301 
-0.533479 44.528591 0.595937 -0.801981 -3.134460 -0.932773 -23.595600 2.369870 -1.151710 13.730800 4.285930 -0.384876 21.103794 -5.652560 -7.622710 15.784000 9.875690 -2.140080 2.000000 -2.000000 0.000000 -48.741100 -12.163300 169.647995 109.942001 -0.164888 0.147503 0.058661 0.065619 -112.780998 -2.000000 2.000000 0.000000 55.314301 19.650299 162.587997 -109.267998 0.172956 0.110085 -0.073715 -0.076332 -108.514000 -6.009200 1.365949 -0.162145 28.375517 3.256505 1.981122 -14.164265 7.030656 1.066401 -6.107093 4.523416 0.959613 27.104195 -2.948708 -2.013666 -14.182943 -2.453629 -1.582113 
-0.496013 44.531292 0.621469 -0.772555 -3.017300 -0.633217 -23.468800 2.387450 -1.216780 13.945600 4.365420 -0.407069 20.993330 -5.600985 -7.598310 15.773300 9.856940 -2.126140 2.000000 -2.000000 0.000000 -48.858299 -12.251500 169.501999 109.952003 -0.164864 0.147495 0.058461 0.065169 -112.957001 -2.000000 2.000000 0.000000 55.057400 19.178900 159.438995 -109.786003 0.171875 0.109701 -0.073366 -0.075682 -108.777000 -6.036474 1.218273 -0.230462 28.308374 3.240793 1.978158 -14.075194 6.889722 1.029650 -6.045243 4.317974 0.681628 27.053654 -2.955278 -1.996368 -14.271671 -2.400490 -1.578380 
-0.458549 44.533871 0.647001 -0.733368 -2.909920 -0.333910 -23.341700 2.392700 -1.286960 14.150600 4.444840 -0.429431 20.869274 -5.563397 -7.583872 15.762300 9.828620 -2.114150 2.000000 -2.000000 0.000000 -48.975399 -12.349500 169.354996 109.971001 -0.164818 0.147478 0.058262 0.064719 -113.133003 -2.000000 2.000000 0.000000 54.819599 18.707300 156.304001 -110.303001 0.170798 0.109308 -0.073019 -0.075030 -109.041000 -6.059259 1.064816 -0.279350 28.229912 3.235665 1.968021 -14.008227 6.731202 0.963092 -6.078379 4.125349 0.413259 27.121241 -2.966667 -1.998137 -14.379680 -2.344867 -1.584743 
-0.445027 44.541992 0.636721 -0.635693 -3.095510 0.268654 -23.519100 2.484690 -1.484850 13.835400 4.626330 -0.534632 20.677090 -5.595981 -7.523002 15.641000 9.766040 -2.110320 2.000000 -2.000000 0.000000 -49.229401 -12.212200 169.608994 110.069000 -0.164583 0.147392 0.057933 0.063967 -113.426003 -2.000000 2.000000 0.000000 54.873199 17.328600 152.608994 -110.703003 0.169967 0.108998 -0.071724 -0.062763 -110.046997 -6.336359 1.294071 -0.534265 28.329723 3.232160 1.995212 -13.954803 6.356560 0.848977 -6.075214 4.358851 0.210712 26.924868 -2.966460 -2.000653 -14.313033 -2.787746 -1.718961 
-0.431506 44.550117 0.626443 -0.547773 -3.281100 0.880911 -23.706100 2.572640 -1.693220 13.510200 4.807340 -0.641878 20.471077 -5.628737 -7.449787 15.509700 9.703720 -2.115980 2.000000 -2.000000 0.000000 -49.483299 -12.084600 169.871994 110.167000 -0.164348 0.147306 0.057608 0.053448 -113.719002 -2.000000 2.000000 0.000000 55.024101 15.959200 148.940994 -111.103996 0.169138 0.108681 -0.070473 -0.060240 -111.053001 -6.629111 1.521184 -0.779671 28.478338 3.227789 2.012564 -13.940920 5.971115 0.732951 -6.059005 4.586874 0.010131 26.662081 -2.939272 -1.988405 -14.195563 -3.207074 -1.871252 
-0.420066 44.564419 0.664829 -0.450070 -3.525280 1.463170 -23.707500 2.675330 -1.919250 13.557600 4.962930 -0.734862 20.526533 -5.682078 -7.469180 15.569500 9.711160 -2.113940 2.000000 -2.000000 0.000000 -49.766499 -12.113900 169.871994 110.214996 -0.164231 0.147263 0.057726 0.053725 -113.611000 -2.000000 2.000000 0.000000 55.330002 14.053500 144.794006 -111.192001 0.168956 0.108611 -0.068742 -0.056551 -112.508003 -6.821604 1.811253 -1.022122 28.497547 3.228256 2.002676 -13.905244 5.562423 0.613894 -5.949798 4.895133 -0.072116 26.398140 -2.923509 -1.978775 -14.192727 -3.770356 -2.015880 
-0.408626 44.578606 0.703214 -0.362107 -3.759690 2.045180 -23.718399 2.768850 -2.141890 13.595300 5.108750 -0.837038 20.575199 -5.742426 -7.488607 15.629300 9.718580 -2.111890 2.000000 -2.000000 0.000000 -50.049801 -12.143200 169.871994 110.264000 -0.164114 0.147220 0.057845 0.063767 -113.503998 -2.000000 2.000000 0.000000 55.772202 12.166800 140.669006 -111.279999 0.168775 0.108540 -0.067105 -0.052820 -113.962997 -7.009382 2.092369 -1.265687 28.518570 3.222583 2.020584 -13.877727 5.165823 0.492077 -5.899123 5.208193 -0.170306 26.153040 -2.911580 -1.960146 -14.164395 -4.297618 -2.205803 
-0.397325 44.585434 0.746293 -0.332740 -3.740170 3.019710 -23.547899 2.692830 -2.513000 13.809300 5.266210 -1.021710 20.527716 -5.818985 -7.537134 15.755800 9.656520 -2.102200 2.000000 -2.000000 0.000000 -50.235298 -12.397700 169.608994 110.283997 -0.164067 0.147203 0.057878 0.063842 -113.474998 -2.000000 2.000000 0.000000 56.615002 10.327900 136.835999 -110.283997 0.170838 0.109323 -0.066671 -0.051786 -114.362999 -7.104824 2.128257 -1.534607 28.399897 3.226303 2.013070 -13.790538 4.415466 0.279762 -5.771648 5.211014 -0.603798 26.008234 -2.894837 -1.977946 -14.221289 -4.843601 -2.432080 
-0.386022 44.592266 0.789369 -0.313160 -3.720650 3.994890 -23.376400 2.607990 -2.879460 14.023500 5.414040 -1.213870 20.480225 -5.895546 -7.594353 15.882700 9.604030 -2.090800 2.000000 -2.000000 0.000000 -50.420898 -12.652200 169.356003 110.313004 -0.163997 0.147177 0.057900 0.063892 -113.455002 -2.000000 2.000000 0.000000 57.564999 8.547280 132.992996 -109.287003 0.172915 0.110070 -0.066235 -0.050724 -114.773003 -7.220923 2.166027 -1.812238 28.309673 3.235942 1.996404 -13.690259 3.668875 0.059180 -5.626150 5.233335 -1.064084 25.870914 -2.889294 -1.968933 -14.325874 -5.415399 -2.652962 
-0.375903 44.588783 0.833056 -0.274009 -3.701130 4.705150 -23.500401 2.530140 -3.002830 13.885700 5.451350 -1.290800 20.622683 -5.665873 -7.606990 15.807500 9.712070 -2.121290 2.000000 -2.000000 0.000000 -50.587101 -12.807900 169.619995 110.245003 -0.164161 0.147237 0.058196 0.064569 -113.191002 -2.000000 2.000000 0.000000 58.886902 5.495540 129.882004 -107.724998 0.176198 0.111169 -0.065334 -0.048462 -115.642998 -7.321668 2.154421 -2.100228 28.271427 3.225811 1.994434 -13.762012 3.041017 -0.113918 -5.527739 5.250805 -1.266896 25.740896 -2.904055 -1.954014 -14.352874 -5.990050 -2.839587 
-0.365784 44.585178 0.876742 -0.244646 -3.681610 5.406300 -23.624201 2.448900 -3.135230 13.757700 5.488710 -1.366050 20.758404 -5.456934 -7.640250 15.722700 9.830080 -2.150120 2.000000 -2.000000 0.000000 -50.763100 -12.963500 169.893997 110.185997 -0.164302 0.147289 0.058483 0.065219 -112.936996 -2.000000 2.000000 0.000000 60.374802 2.521690 126.723000 -106.162003 0.179510 0.112178 -0.064459 -0.046162 -116.521004 -7.408301 2.153131 -2.379377 28.183594 3.216300 1.983877 -13.815429 2.424160 -0.304974 -5.453440 5.284913 -1.471818 25.631416 -2.910095 -1.937329 -14.403648 -6.559214 -3.046946 
-0.378246 44.585571 0.911294 -0.225099 -3.779270 5.991370 -23.535000 2.458090 -3.250090 13.815700 5.566960 -1.428160 20.820057 -5.434740 -7.729578 15.852200 9.844430 -2.153800 2.000000 -2.000000 0.000000 -50.851101 -13.315300 169.768005 110.137001 -0.164419 0.147332 0.058405 0.065044 -113.005997 -2.000000 2.000000 0.000000 61.971901 -0.395065 124.443001 -103.867996 0.184421 0.113495 -0.064044 -0.045033 -116.950996 -7.567924 2.324030 -2.547566 28.268879 3.242670 1.978976 -13.874515 1.770515 -0.493743 -5.394777 5.500517 -1.500480 25.563290 -2.904044 -1.936985 -14.440351 -7.177806 -3.236948 
-0.390705 44.585953 0.945845 -0.205551 -3.886690 6.576400 -23.436100 2.476530 -3.368570 13.883600 5.635640 -1.488030 20.881704 -5.412529 -7.819832 15.981700 9.858700 -2.167180 2.000000 -2.000000 0.000000 -50.939201 -13.667200 169.641998 110.098000 -0.164513 0.147366 0.058328 0.064869 -113.073997 -2.000000 2.000000 0.000000 63.686001 -3.243540 122.084999 -101.572998 0.189381 0.114614 -0.063637 -0.043900 -117.380997 -7.718718 2.493804 -2.746442 28.349554 3.234202 2.005286 -13.933615 1.103906 -0.679119 -5.357483 5.716103 -1.521562 25.449293 -2.878345 -1.962790 -14.432238 -7.797570 -3.434915 
